<svg width="40" height="40" viewBox="0 0 40 40" fill="none" xmlns="http://www.w3.org/2000/svg">
<path d="M20 17.9167C24.3722 17.9167 27.9166 14.3723 27.9166 10C27.9166 5.62775 24.3722 2.08334 20 2.08334C15.6277 2.08334 12.0833 5.62775 12.0833 10C12.0833 14.3723 15.6277 17.9167 20 17.9167Z" fill="#3678DC"/>
<path d="M23.3333 18.75H16.6666C14.1259 18.7531 11.6902 19.7637 9.89362 21.5603C8.09706 23.3569 7.0864 25.7926 7.08331 28.3333V36.6667C7.08331 36.9982 7.21501 37.3161 7.44943 37.5506C7.68385 37.785 8.00179 37.9167 8.33331 37.9167H31.6666C31.9982 37.9167 32.3161 37.785 32.5505 37.5506C32.7849 37.3161 32.9166 36.9982 32.9166 36.6667V28.3333C32.9136 25.7926 31.9029 23.3569 30.1063 21.5603C28.3098 19.7637 25.874 18.7531 23.3333 18.75Z" fill="#3678DC"/>
</svg>
