<svg width="30" height="30" viewBox="0 0 30 30" fill="none" xmlns="http://www.w3.org/2000/svg">
<path d="M15 2.80838C12.0318 2.8085 9.16055 3.86477 6.89993 5.78819C4.63931 7.71161 3.13685 10.3767 2.66139 13.3065C2.18593 16.2363 2.7685 19.2397 4.30485 21.7793C5.8412 24.3189 8.23108 26.229 11.0469 27.1677C11.6719 27.2771 11.9062 26.9021 11.9062 26.574C11.9062 26.2771 11.8906 25.2927 11.8906 24.2459C8.74997 24.824 7.93747 23.4803 7.68747 22.7772C7.41007 22.0933 6.97032 21.4873 6.40622 21.0115C5.96872 20.7771 5.34372 20.199 6.39058 20.1834C6.79032 20.2268 7.17371 20.3659 7.50826 20.5889C7.84282 20.8119 8.11868 21.1123 8.31247 21.4646C8.48344 21.7717 8.71332 22.0421 8.98896 22.2602C9.2646 22.4784 9.58057 22.64 9.91876 22.7358C10.257 22.8316 10.6107 22.8597 10.9598 22.8185C11.3089 22.7773 11.6464 22.6677 11.9531 22.4959C12.0072 21.8604 12.2904 21.2662 12.75 20.824C9.96872 20.5115 7.06247 19.4334 7.06247 14.6522C7.04491 13.4098 7.50333 12.2079 8.34372 11.2928C7.96157 10.2131 8.00629 9.02815 8.46872 7.98029C8.46872 7.98029 9.51556 7.65215 11.9062 9.26154C13.9516 8.69901 16.1109 8.69901 18.1562 9.26154C20.5468 7.63654 21.5937 7.98029 21.5937 7.98029C22.0562 9.02813 22.1009 10.2131 21.7187 11.2928C22.5616 12.2063 23.0205 13.4093 23 14.6522C23 19.449 20.0781 20.5115 17.2968 20.824C17.5952 21.1264 17.8249 21.4894 17.9705 21.8884C18.1161 22.2874 18.1741 22.7131 18.1406 23.1365C18.1406 24.8084 18.125 26.1521 18.125 26.574C18.125 26.9022 18.3593 27.2928 18.9843 27.1678C21.7952 26.2214 24.1782 24.3068 25.708 21.7659C27.2378 19.225 27.8148 16.2232 27.3361 13.2962C26.8573 10.3692 25.3539 7.70759 23.0943 5.78652C20.8347 3.86544 17.9659 2.80992 15 2.80838Z" fill="#3678DC"/>
</svg>
