<svg width="30" height="30" viewBox="0 0 30 30" fill="none" xmlns="http://www.w3.org/2000/svg">
<path fill-rule="evenodd" clip-rule="evenodd" d="M25.4577 0.9375H4.5423C2.5616 0.9375 0.9375 2.56178 0.9375 4.54225V25.4577C0.9375 27.4382 2.5616 29.0625 4.5423 29.0625H25.4576C27.4386 29.0625 29.0625 27.4382 29.0625 25.4578V4.54225C29.0625 2.56178 27.4386 0.9375 25.4577 0.9375ZM10.6055 14.5202V23.2031H6.79688V12.2461H10.6055V14.5202ZM8.69355 10.613C7.634 10.613 6.77426 9.75387 6.77426 8.69367C6.77426 7.6333 7.634 6.77525 8.69355 6.77525C9.75457 6.77525 10.6135 7.63336 10.6135 8.69367C10.6135 9.75387 9.75463 10.613 8.69355 10.613ZM23.2031 17.2266V23.2031H19.9219V17.8809C19.9219 16.6065 19.7839 14.9674 18.0373 14.9674C16.2641 14.9674 15.9961 16.3548 15.9961 17.789V23.2031H12.832V12.2461H15.8789V13.7109H15.9114C16.3658 12.8906 17.4792 12.2449 19.137 12.2449C21.9303 12.2449 22.8795 13.5658 23.1393 15.6323C23.2009 16.1173 23.2247 16.6406 23.2247 17.2266H23.2031Z" fill="#3678DC"/>
</svg>
