<svg width="50" height="50" viewBox="0 0 50 50" fill="none" xmlns="http://www.w3.org/2000/svg">
<path d="M16.709 13.7891C17.2753 13.7891 17.7344 13.33 17.7344 12.7637C17.7344 12.1974 17.2753 11.7383 16.709 11.7383C16.1427 11.7383 15.6836 12.1974 15.6836 12.7637C15.6836 13.33 16.1427 13.7891 16.709 13.7891Z" fill="#3678DC"/>
<path d="M10.9961 13.7891C11.5624 13.7891 12.0215 13.33 12.0215 12.7637C12.0215 12.1974 11.5624 11.7383 10.9961 11.7383C10.4298 11.7383 9.9707 12.1974 9.9707 12.7637C9.9707 13.33 10.4298 13.7891 10.9961 13.7891Z" fill="#3678DC"/>
<path d="M7.22656 38.4766C7.23633 40.2051 8.63281 41.6016 10.3613 41.6016H39.6387C41.3672 41.6016 42.7637 40.2051 42.7734 38.4766V18.6523H7.22656V38.4766ZM18.9258 22.832C19.1309 22.627 19.4434 22.5488 19.7266 22.6465L29.668 25.957C30.0781 26.0938 30.3027 26.5332 30.166 26.9434C30.127 27.0606 30.0586 27.1582 29.9805 27.2461L27.2168 30.0098L31.084 33.877C31.3867 34.1797 31.3867 34.6777 31.084 34.9805C30.7812 35.2832 30.2832 35.2832 29.9805 34.9805L26.1133 31.1133L23.3398 33.877C23.0371 34.1797 22.5391 34.1797 22.2363 33.877C22.1484 33.7891 22.0898 33.6914 22.0508 33.5742L18.7305 23.6328C18.6426 23.3496 18.7109 23.0371 18.9258 22.832ZM22.4121 11.7383C21.8457 11.7383 21.3867 12.1973 21.3867 12.7637C21.3867 13.3301 21.8457 13.7891 22.4121 13.7891C22.9785 13.7891 23.4375 13.3301 23.4375 12.7637C23.4375 12.1973 22.9785 11.7383 22.4121 11.7383Z" fill="#3678DC"/>
<path d="M25.5469 29.4629H25.5566V29.4531L27.9688 27.041L20.7129 24.6191L23.1348 31.875L25.5469 29.4629Z" fill="#3678DC"/>
</svg>
