<svg id="SvgjsSvg1011" width="288" height="288" xmlns="http://www.w3.org/2000/svg" version="1.1" xmlns:xlink="http://www.w3.org/1999/xlink" xmlns:svgjs="http://svgjs.com/svgjs"><defs id="SvgjsDefs1012"></defs><g id="SvgjsG1013"><svg xmlns="http://www.w3.org/2000/svg" enable-background="new 0 0 512 512" viewBox="0 0 512 512" width="288" height="288"><circle cx="171.1" cy="130.7" r="10.5" fill="#ac87da" class="color000 svgShape"></circle><circle cx="112.6" cy="130.7" r="10.5" fill="#ac87da" class="color000 svgShape"></circle><path d="M74 394c.1 17.7 14.4 32 32.1 32h299.8c17.7 0 32-14.3 32.1-32V191H74V394zM193.8 233.8c2.1-2.1 5.3-2.9 8.2-1.9l101.8 33.9c4.2 1.4 6.5 5.9 5.1 10.1-.4 1.2-1.1 2.2-1.9 3.1l-28.3 28.3 39.6 39.6c3.1 3.1 3.1 8.2 0 11.3s-8.2 3.1-11.3 0l-39.6-39.6L239 346.9c-3.1 3.1-8.2 3.1-11.3 0-.9-.9-1.5-1.9-1.9-3.1L191.8 242C190.9 239.1 191.6 235.9 193.8 233.8zM229.5 120.2c-5.8 0-10.5 4.7-10.5 10.5s4.7 10.5 10.5 10.5 10.5-4.7 10.5-10.5C240 124.9 235.3 120.2 229.5 120.2z" fill="#ac87da" class="color000 svgShape"></path><polygon points="261.6 301.7 261.7 301.7 261.7 301.6 286.4 276.9 212.1 252.1 236.9 326.4" fill="#ac87da" class="color000 svgShape"></polygon><path d="M405.9,86H106.1c-17.7,0-32,14.3-32.1,32v57h364v-57C437.9,100.3,423.6,86,405.9,86z M112.6,157.2		c-14.6,0-26.5-11.9-26.5-26.5s11.9-26.5,26.5-26.5s26.5,11.9,26.5,26.5c0,0,0,0,0,0C139.1,145.3,127.2,157.2,112.6,157.2z
		 M171.1,157.2c-14.6,0-26.5-11.9-26.5-26.5s11.9-26.5,26.5-26.5s26.5,11.9,26.5,26.5l0,0C197.6,145.3,185.7,157.2,171.1,157.2
		L171.1,157.2z M229.5,157.2c-14.6,0-26.5-11.9-26.5-26.5s11.9-26.5,26.5-26.5s26.5,11.9,26.5,26.5l0,0
		C256,145.3,244.2,157.2,229.5,157.2z" fill="#ac87da" class="color000 svgShape"></path></svg></g></svg>